<svg width="74" height="55" viewBox="0 0 74 55" fill="none" xmlns="http://www.w3.org/2000/svg">
<path d="M58.2518 0.000101703C62.6518 0.000102088 66.2518 1.46677 69.0518 4.4001C71.7184 7.33343 73.0518 11.2668 73.0518 16.2001C73.0518 24.8668 70.1851 32.4001 64.4518 38.8001C58.5851 45.2001 51.5851 50.4668 43.4518 54.6001L41.4518 51.2001C44.7851 49.0668 47.9184 46.3334 50.8518 43.0001C53.6518 39.6668 55.8518 36.0668 57.4518 32.2001L51.8518 28.0001C49.5851 26.5334 47.7184 24.5334 46.2518 22.0001C44.7851 19.6001 44.0518 17.2668 44.0518 15.0001C44.0518 10.7334 45.3851 7.13343 48.0518 4.2001C50.5851 1.4001 53.9851 0.00010133 58.2518 0.000101703ZM17.0518 9.81012e-05C21.4518 9.84858e-05 25.0518 1.46676 27.8518 4.40009C30.5184 7.33343 31.8518 11.2668 31.8518 16.2001C31.8518 24.8668 28.9851 32.4001 23.2518 38.8001C17.3851 45.2001 10.3851 50.4668 2.25175 54.6001L0.251755 51.2001C3.58509 49.0668 6.71842 46.3334 9.65176 43.0001C12.4518 39.6668 14.6518 36.0668 16.2518 32.2001L10.6518 28.0001C8.38509 26.5334 6.51842 24.5334 5.05175 22.0001C3.58509 19.6001 2.85176 17.2668 2.85176 15.0001C2.85176 10.7334 4.18509 7.13343 6.85176 4.20009C9.38509 1.4001 12.7851 9.77281e-05 17.0518 9.81012e-05Z" fill="#CDA274"/>
</svg>
