<svg width="31" height="24" viewBox="0 0 31 24" fill="none" xmlns="http://www.w3.org/2000/svg">
<path d="M6.32027 23.205C4.45027 23.205 2.92027 22.5817 1.73027 21.335C0.59694 20.0883 0.0302734 18.4167 0.0302734 16.32C0.0302734 12.6367 1.24861 9.435 3.68527 6.715C6.17861 3.995 9.15361 1.75666 12.6103 0L13.4603 1.445C12.0436 2.35166 10.7119 3.51333 9.46527 4.93C8.27527 6.34667 7.34027 7.87667 6.66027 9.52L9.04027 11.305C10.0036 11.9283 10.7969 12.7783 11.4203 13.855C12.0436 14.875 12.3553 15.8667 12.3553 16.83C12.3553 18.6433 11.7886 20.1733 10.6553 21.42C9.57861 22.61 8.13361 23.205 6.32027 23.205ZM23.8303 23.205C21.9603 23.205 20.4303 22.5817 19.2403 21.335C18.1069 20.0883 17.5403 18.4167 17.5403 16.32C17.5403 12.6367 18.7586 9.435 21.1953 6.715C23.6886 3.995 26.6636 1.75666 30.1203 0L30.9703 1.445C29.5536 2.35166 28.2219 3.51333 26.9753 4.93C25.7853 6.34667 24.8503 7.87667 24.1703 9.52L26.5503 11.305C27.5136 11.9283 28.3069 12.7783 28.9303 13.855C29.5536 14.875 29.8653 15.8667 29.8653 16.83C29.8653 18.6433 29.2986 20.1733 28.1653 21.42C27.0886 22.61 25.6436 23.205 23.8303 23.205Z" fill="#292F36"/>
</svg>
