<svg width="19" height="15" viewBox="0 0 19 15" fill="none" xmlns="http://www.w3.org/2000/svg">
<path d="M16.7969 3.82617C17.5 3.29883 18.1328 2.66602 18.625 1.92773C17.9922 2.20898 17.2539 2.41992 16.5156 2.49023C17.2891 2.0332 17.8516 1.33008 18.1328 0.451172C17.4297 0.873047 16.6211 1.18945 15.8125 1.36523C15.1094 0.626953 14.1602 0.205078 13.1055 0.205078C11.0664 0.205078 9.41406 1.85742 9.41406 3.89648C9.41406 4.17773 9.44922 4.45898 9.51953 4.74023C6.46094 4.56445 3.71875 3.08789 1.89062 0.873047C1.57422 1.40039 1.39844 2.0332 1.39844 2.73633C1.39844 4.00195 2.03125 5.12695 3.05078 5.79492C2.45312 5.75977 1.85547 5.61914 1.36328 5.33789V5.37305C1.36328 7.16602 2.62891 8.64258 4.31641 8.99414C4.03516 9.06445 3.68359 9.13477 3.36719 9.13477C3.12109 9.13477 2.91016 9.09961 2.66406 9.06445C3.12109 10.541 4.49219 11.5957 6.10938 11.6309C4.84375 12.6152 3.26172 13.2129 1.53906 13.2129C1.22266 13.2129 0.941406 13.1777 0.660156 13.1426C2.27734 14.1973 4.21094 14.7949 6.32031 14.7949C13.1055 14.7949 16.7969 9.20508 16.7969 4.31836C16.7969 4.14258 16.7969 4.00195 16.7969 3.82617Z" fill="#292F36"/>
</svg>
