<svg width="17" height="17" viewBox="0 0 17 17" fill="none" xmlns="http://www.w3.org/2000/svg">
<path d="M4.14062 16.3574V5.8457H0.871094V16.3574H4.14062ZM2.48828 4.43945C3.54297 4.43945 4.38672 3.56055 4.38672 2.50586C4.38672 1.48633 3.54297 0.642578 2.48828 0.642578C1.46875 0.642578 0.625 1.48633 0.625 2.50586C0.625 3.56055 1.46875 4.43945 2.48828 4.43945ZM16.3398 16.3574H16.375V10.5918C16.375 7.7793 15.7422 5.59961 12.4375 5.59961C10.8555 5.59961 9.80078 6.47852 9.34375 7.28711H9.30859V5.8457H6.17969V16.3574H9.44922V11.1543C9.44922 9.7832 9.69531 8.48242 11.3828 8.48242C13.0703 8.48242 13.1055 10.0293 13.1055 11.2598V16.3574H16.3398Z" fill="#292F36"/>
</svg>
