<svg width="17" height="17" viewBox="0 0 17 17" fill="none" xmlns="http://www.w3.org/2000/svg">
<path d="M8.70605 4.21387C6.33105 4.21387 4.43848 6.14355 4.43848 8.48145C4.43848 10.8564 6.33105 12.749 8.70605 12.749C11.0439 12.749 12.9736 10.8564 12.9736 8.48145C12.9736 6.14355 11.0439 4.21387 8.70605 4.21387ZM8.70605 11.2646C7.18457 11.2646 5.92285 10.04 5.92285 8.48145C5.92285 6.95996 7.14746 5.73535 8.70605 5.73535C10.2275 5.73535 11.4521 6.95996 11.4521 8.48145C11.4521 10.04 10.2275 11.2646 8.70605 11.2646ZM14.124 4.06543C14.124 3.50879 13.6787 3.06348 13.1221 3.06348C12.5654 3.06348 12.1201 3.50879 12.1201 4.06543C12.1201 4.62207 12.5654 5.06738 13.1221 5.06738C13.6787 5.06738 14.124 4.62207 14.124 4.06543ZM16.9443 5.06738C16.8701 3.73145 16.5732 2.54395 15.6084 1.5791C14.6436 0.614258 13.4561 0.317383 12.1201 0.243164C10.7471 0.168945 6.62793 0.168945 5.25488 0.243164C3.91895 0.317383 2.76855 0.614258 1.7666 1.5791C0.801758 2.54395 0.504883 3.73145 0.430664 5.06738C0.356445 6.44043 0.356445 10.5596 0.430664 11.9326C0.504883 13.2686 0.801758 14.4189 1.7666 15.4209C2.76855 16.3857 3.91895 16.6826 5.25488 16.7568C6.62793 16.8311 10.7471 16.8311 12.1201 16.7568C13.4561 16.6826 14.6436 16.3857 15.6084 15.4209C16.5732 14.4189 16.8701 13.2686 16.9443 11.9326C17.0186 10.5596 17.0186 6.44043 16.9443 5.06738ZM15.1631 13.3799C14.9033 14.1221 14.3096 14.6787 13.6045 14.9756C12.4912 15.4209 9.89355 15.3096 8.70605 15.3096C7.48145 15.3096 4.88379 15.4209 3.80762 14.9756C3.06543 14.6787 2.50879 14.1221 2.21191 13.3799C1.7666 12.3037 1.87793 9.70605 1.87793 8.48145C1.87793 7.29395 1.7666 4.69629 2.21191 3.58301C2.50879 2.87793 3.06543 2.32129 3.80762 2.02441C4.88379 1.5791 7.48145 1.69043 8.70605 1.69043C9.89355 1.69043 12.4912 1.5791 13.6045 2.02441C14.3096 2.28418 14.8662 2.87793 15.1631 3.58301C15.6084 4.69629 15.4971 7.29395 15.4971 8.48145C15.4971 9.70605 15.6084 12.3037 15.1631 13.3799Z" fill="#292F36"/>
</svg>
